<svg width="24" height="24" viewBox="0 0 24 24" fill="none" xmlns="http://www.w3.org/2000/svg">
<path d="M8.31402 7.83475C8.47693 7.81113 8.61777 7.70884 8.69063 7.56123L11.5436 1.78123L11.5438 1.78094C11.585 1.69721 11.6489 1.6267 11.7282 1.57739C11.8074 1.52808 11.8989 1.50195 11.9923 1.50195C12.0856 1.50195 12.1771 1.52808 12.2564 1.57739C12.3356 1.6267 12.3995 1.69721 12.4408 1.78094L12.4409 1.78117L15.2929 7.56117C15.3657 7.70879 15.5066 7.81109 15.6695 7.83474L22.0495 8.76074L22.0496 8.76076C22.1371 8.77343 22.2196 8.80906 22.2889 8.86402C22.3581 8.91898 22.4115 8.9913 22.4437 9.07363C22.4758 9.15595 22.4856 9.24533 22.472 9.33266C22.459 9.41586 22.4252 9.49436 22.3739 9.56094L22.3174 9.62245L17.7036 14.1126C17.5855 14.2275 17.5316 14.3932 17.5595 14.5555L18.6505 20.9105L18.6505 20.9107C18.6656 20.9981 18.6571 21.088 18.6259 21.171C18.5948 21.2541 18.5421 21.3274 18.4733 21.3833C18.4045 21.4393 18.322 21.476 18.2344 21.4896C18.1506 21.5026 18.0649 21.494 17.9854 21.4648L17.9125 21.4313L12.2314 18.4376C12.0856 18.3608 11.9114 18.3607 11.7656 18.4374L6.0596 21.4374L6.0594 21.4375C5.98099 21.4787 5.89301 21.4984 5.80448 21.4945C5.71595 21.4906 5.63005 21.4632 5.55557 21.4152C5.4811 21.3672 5.42072 21.3002 5.38063 21.2212C5.34237 21.1458 5.32389 21.062 5.32683 20.9776L5.33629 20.8976L6.42408 14.5554C6.45192 14.3931 6.39805 14.2275 6.28003 14.1126L1.65803 9.61363L1.65757 9.61318C1.59408 9.55154 1.54808 9.47415 1.52428 9.38892C1.50048 9.30369 1.49973 9.21367 1.5221 9.12805C1.54447 9.04243 1.58916 8.96428 1.65161 8.90158C1.7112 8.84176 1.78492 8.79805 1.86585 8.77445L1.94808 8.75771L8.31402 7.83475Z" fill="white" stroke="black" stroke-linecap="round" stroke-linejoin="round"/>
</svg>
